<?xml version="1.0" encoding="UTF-8" standalone="no"?>
<!DOCTYPE svg PUBLIC "-//W3C//DTD SVG 1.1//EN" "http://www.w3.org/Graphics/SVG/1.1/DTD/svg11.dtd">
<svg width="100%" height="100%" viewBox="0 0 3300 2550" version="1.1" xmlns="http://www.w3.org/2000/svg" xmlns:xlink="http://www.w3.org/1999/xlink" xml:space="preserve" xmlns:serif="http://www.serif.com/" style="fill-rule:evenodd;clip-rule:evenodd;stroke-linecap:round;stroke-linejoin:round;stroke-miterlimit:1.5;">
    <g transform="matrix(1,0,0,1,-225,262.5)">
        <path d="M525,412.5C525,391.803 508.197,375 487.5,375L412.5,375C391.803,375 375,391.803 375,412.5L375,487.5C375,508.197 391.803,525 412.5,525L487.5,525C508.197,525 525,508.197 525,487.5L525,412.5Z" style="fill:rgb(235,235,235);stroke:black;stroke-width:2.08px;"/>
        <g transform="matrix(1,0,0,1,0,175.6)">
            <path d="M525,412.5C525,391.803 508.197,375 487.5,375L412.5,375C391.803,375 375,391.803 375,412.5L375,487.5C375,508.197 391.803,525 412.5,525L487.5,525C508.197,525 525,508.197 525,487.5L525,412.5Z" style="fill:rgb(235,235,235);stroke:black;stroke-width:2.08px;"/>
        </g>
        <g transform="matrix(1,0,0,1,0,351.2)">
            <path d="M525,412.5C525,391.803 508.197,375 487.5,375L412.5,375C391.803,375 375,391.803 375,412.5L375,487.5C375,508.197 391.803,525 412.5,525L487.5,525C508.197,525 525,508.197 525,487.5L525,412.5Z" style="fill:rgb(235,235,235);stroke:black;stroke-width:2.08px;"/>
        </g>
        <g transform="matrix(1,0,0,1,0,526.8)">
            <path d="M525,412.5C525,391.803 508.197,375 487.5,375L412.5,375C391.803,375 375,391.803 375,412.5L375,487.5C375,508.197 391.803,525 412.5,525L487.5,525C508.197,525 525,508.197 525,487.5L525,412.5Z" style="fill:rgb(235,235,235);stroke:black;stroke-width:2.08px;"/>
        </g>
        <g transform="matrix(1,0,0,1,0,702.4)">
            <path d="M525,412.5C525,391.803 508.197,375 487.5,375L412.5,375C391.803,375 375,391.803 375,412.5L375,487.5C375,508.197 391.803,525 412.5,525L487.5,525C508.197,525 525,508.197 525,487.5L525,412.5Z" style="fill:rgb(235,235,235);stroke:black;stroke-width:2.08px;"/>
        </g>
        <g transform="matrix(1,0,0,1,0,878)">
            <path d="M525,412.5C525,391.803 508.197,375 487.5,375L412.5,375C391.803,375 375,391.803 375,412.5L375,487.5C375,508.197 391.803,525 412.5,525L487.5,525C508.197,525 525,508.197 525,487.5L525,412.5Z" style="fill:rgb(235,235,235);stroke:black;stroke-width:2.08px;"/>
        </g>
        <g transform="matrix(1,0,0,1,189.423,0)">
            <path d="M525,412.5C525,391.803 508.197,375 487.5,375L412.5,375C391.803,375 375,391.803 375,412.5L375,487.5C375,508.197 391.803,525 412.5,525L487.5,525C508.197,525 525,508.197 525,487.5L525,412.5Z" style="fill:rgb(235,235,235);stroke:black;stroke-width:2.08px;"/>
        </g>
        <g transform="matrix(1,0,0,1,189.423,175.6)">
            <path d="M525,412.5C525,391.803 508.197,375 487.5,375L412.5,375C391.803,375 375,391.803 375,412.5L375,487.5C375,508.197 391.803,525 412.5,525L487.5,525C508.197,525 525,508.197 525,487.5L525,412.5Z" style="fill:rgb(235,235,235);stroke:black;stroke-width:2.08px;"/>
        </g>
        <g transform="matrix(1,0,0,1,189.423,351.2)">
            <path d="M525,412.5C525,391.803 508.197,375 487.5,375L412.5,375C391.803,375 375,391.803 375,412.5L375,487.5C375,508.197 391.803,525 412.5,525L487.5,525C508.197,525 525,508.197 525,487.5L525,412.5Z" style="fill:rgb(235,235,235);stroke:black;stroke-width:2.08px;"/>
        </g>
        <g transform="matrix(1,0,0,1,189.423,526.8)">
            <path d="M525,412.5C525,391.803 508.197,375 487.5,375L412.5,375C391.803,375 375,391.803 375,412.5L375,487.5C375,508.197 391.803,525 412.5,525L487.5,525C508.197,525 525,508.197 525,487.5L525,412.5Z" style="fill:rgb(235,235,235);stroke:black;stroke-width:2.08px;"/>
        </g>
        <g transform="matrix(1,0,0,1,189.423,702.4)">
            <path d="M525,412.5C525,391.803 508.197,375 487.5,375L412.5,375C391.803,375 375,391.803 375,412.5L375,487.5C375,508.197 391.803,525 412.5,525L487.5,525C508.197,525 525,508.197 525,487.5L525,412.5Z" style="fill:rgb(235,235,235);stroke:black;stroke-width:2.08px;"/>
        </g>
        <g transform="matrix(1,0,0,1,189.423,878)">
            <path d="M525,412.5C525,391.803 508.197,375 487.5,375L412.5,375C391.803,375 375,391.803 375,412.5L375,487.5C375,508.197 391.803,525 412.5,525L487.5,525C508.197,525 525,508.197 525,487.5L525,412.5Z" style="fill:rgb(235,235,235);stroke:black;stroke-width:2.08px;"/>
        </g>
        <g transform="matrix(1,0,0,1,378.845,0)">
            <path d="M525,412.5C525,391.803 508.197,375 487.5,375L412.5,375C391.803,375 375,391.803 375,412.5L375,487.5C375,508.197 391.803,525 412.5,525L487.5,525C508.197,525 525,508.197 525,487.5L525,412.5Z" style="fill:rgb(235,235,235);stroke:black;stroke-width:2.08px;"/>
        </g>
        <g transform="matrix(1,0,0,1,378.845,175.6)">
            <path d="M525,412.5C525,391.803 508.197,375 487.5,375L412.5,375C391.803,375 375,391.803 375,412.5L375,487.5C375,508.197 391.803,525 412.5,525L487.5,525C508.197,525 525,508.197 525,487.5L525,412.5Z" style="fill:rgb(235,235,235);stroke:black;stroke-width:2.08px;"/>
        </g>
        <g transform="matrix(1,0,0,1,378.845,351.2)">
            <path d="M525,412.5C525,391.803 508.197,375 487.5,375L412.5,375C391.803,375 375,391.803 375,412.5L375,487.5C375,508.197 391.803,525 412.5,525L487.5,525C508.197,525 525,508.197 525,487.5L525,412.5Z" style="fill:rgb(235,235,235);stroke:black;stroke-width:2.08px;"/>
        </g>
        <g transform="matrix(1,0,0,1,378.845,526.8)">
            <path d="M525,412.5C525,391.803 508.197,375 487.5,375L412.5,375C391.803,375 375,391.803 375,412.5L375,487.5C375,508.197 391.803,525 412.5,525L487.5,525C508.197,525 525,508.197 525,487.5L525,412.5Z" style="fill:rgb(235,235,235);stroke:black;stroke-width:2.08px;"/>
        </g>
        <g transform="matrix(1,0,0,1,378.845,702.4)">
            <path d="M525,412.5C525,391.803 508.197,375 487.5,375L412.5,375C391.803,375 375,391.803 375,412.5L375,487.5C375,508.197 391.803,525 412.5,525L487.5,525C508.197,525 525,508.197 525,487.5L525,412.5Z" style="fill:rgb(235,235,235);stroke:black;stroke-width:2.08px;"/>
        </g>
        <g transform="matrix(1,0,0,1,378.845,878)">
            <path d="M525,412.5C525,391.803 508.197,375 487.5,375L412.5,375C391.803,375 375,391.803 375,412.5L375,487.5C375,508.197 391.803,525 412.5,525L487.5,525C508.197,525 525,508.197 525,487.5L525,412.5Z" style="fill:rgb(235,235,235);stroke:black;stroke-width:2.08px;"/>
        </g>
        <g transform="matrix(1,0,0,1,568.268,0)">
            <path d="M525,412.5C525,391.803 508.197,375 487.5,375L412.5,375C391.803,375 375,391.803 375,412.5L375,487.5C375,508.197 391.803,525 412.5,525L487.5,525C508.197,525 525,508.197 525,487.5L525,412.5Z" style="fill:rgb(235,235,235);stroke:black;stroke-width:2.08px;"/>
        </g>
        <g transform="matrix(1,0,0,1,568.268,175.6)">
            <path d="M525,412.5C525,391.803 508.197,375 487.5,375L412.5,375C391.803,375 375,391.803 375,412.5L375,487.5C375,508.197 391.803,525 412.5,525L487.5,525C508.197,525 525,508.197 525,487.5L525,412.5Z" style="fill:rgb(235,235,235);stroke:black;stroke-width:2.08px;"/>
        </g>
        <g transform="matrix(1,0,0,1,568.268,351.2)">
            <path d="M525,412.5C525,391.803 508.197,375 487.5,375L412.5,375C391.803,375 375,391.803 375,412.5L375,487.5C375,508.197 391.803,525 412.5,525L487.5,525C508.197,525 525,508.197 525,487.5L525,412.5Z" style="fill:rgb(235,235,235);stroke:black;stroke-width:2.08px;"/>
        </g>
        <g transform="matrix(1,0,0,1,568.268,526.8)">
            <path d="M525,412.5C525,391.803 508.197,375 487.5,375L412.5,375C391.803,375 375,391.803 375,412.5L375,487.5C375,508.197 391.803,525 412.5,525L487.5,525C508.197,525 525,508.197 525,487.5L525,412.5Z" style="fill:rgb(235,235,235);stroke:black;stroke-width:2.08px;"/>
        </g>
        <g transform="matrix(1,0,0,1,568.268,702.4)">
            <path d="M525,412.5C525,391.803 508.197,375 487.5,375L412.5,375C391.803,375 375,391.803 375,412.5L375,487.5C375,508.197 391.803,525 412.5,525L487.5,525C508.197,525 525,508.197 525,487.5L525,412.5Z" style="fill:rgb(235,235,235);stroke:black;stroke-width:2.08px;"/>
        </g>
        <g transform="matrix(1,0,0,1,568.268,878)">
            <path d="M525,412.5C525,391.803 508.197,375 487.5,375L412.5,375C391.803,375 375,391.803 375,412.5L375,487.5C375,508.197 391.803,525 412.5,525L487.5,525C508.197,525 525,508.197 525,487.5L525,412.5Z" style="fill:rgb(235,235,235);stroke:black;stroke-width:2.08px;"/>
        </g>
        <g transform="matrix(1,0,0,1,757.69,0)">
            <path d="M525,412.5C525,391.803 508.197,375 487.5,375L412.5,375C391.803,375 375,391.803 375,412.5L375,487.5C375,508.197 391.803,525 412.5,525L487.5,525C508.197,525 525,508.197 525,487.5L525,412.5Z" style="fill:rgb(235,235,235);stroke:black;stroke-width:2.08px;"/>
        </g>
        <g transform="matrix(1,0,0,1,757.69,175.6)">
            <path d="M525,412.5C525,391.803 508.197,375 487.5,375L412.5,375C391.803,375 375,391.803 375,412.5L375,487.5C375,508.197 391.803,525 412.5,525L487.5,525C508.197,525 525,508.197 525,487.5L525,412.5Z" style="fill:rgb(235,235,235);stroke:black;stroke-width:2.08px;"/>
        </g>
        <g transform="matrix(1,0,0,1,757.69,351.2)">
            <path d="M525,412.5C525,391.803 508.197,375 487.5,375L412.5,375C391.803,375 375,391.803 375,412.5L375,487.5C375,508.197 391.803,525 412.5,525L487.5,525C508.197,525 525,508.197 525,487.5L525,412.5Z" style="fill:rgb(235,235,235);stroke:black;stroke-width:2.08px;"/>
        </g>
        <g transform="matrix(1,0,0,1,757.69,526.8)">
            <path d="M525,412.5C525,391.803 508.197,375 487.5,375L412.5,375C391.803,375 375,391.803 375,412.5L375,487.5C375,508.197 391.803,525 412.5,525L487.5,525C508.197,525 525,508.197 525,487.5L525,412.5Z" style="fill:rgb(235,235,235);stroke:black;stroke-width:2.08px;"/>
        </g>
        <g transform="matrix(1,0,0,1,757.69,702.4)">
            <path d="M525,412.5C525,391.803 508.197,375 487.5,375L412.5,375C391.803,375 375,391.803 375,412.5L375,487.5C375,508.197 391.803,525 412.5,525L487.5,525C508.197,525 525,508.197 525,487.5L525,412.5Z" style="fill:rgb(235,235,235);stroke:black;stroke-width:2.08px;"/>
        </g>
        <g transform="matrix(1,0,0,1,757.69,878)">
            <path d="M525,412.5C525,391.803 508.197,375 487.5,375L412.5,375C391.803,375 375,391.803 375,412.5L375,487.5C375,508.197 391.803,525 412.5,525L487.5,525C508.197,525 525,508.197 525,487.5L525,412.5Z" style="fill:rgb(235,235,235);stroke:black;stroke-width:2.08px;"/>
        </g>
        <g transform="matrix(1,0,0,1,947.113,175.6)">
            <path d="M525,412.5C525,391.803 508.197,375 487.5,375L412.5,375C391.803,375 375,391.803 375,412.5L375,487.5C375,508.197 391.803,525 412.5,525L487.5,525C508.197,525 525,508.197 525,487.5L525,412.5Z" style="fill:rgb(235,235,235);stroke:black;stroke-width:2.08px;"/>
        </g>
        <g transform="matrix(1,0,0,1,947.113,351.2)">
            <path d="M525,412.5C525,391.803 508.197,375 487.5,375L412.5,375C391.803,375 375,391.803 375,412.5L375,487.5C375,508.197 391.803,525 412.5,525L487.5,525C508.197,525 525,508.197 525,487.5L525,412.5Z" style="fill:rgb(235,235,235);stroke:black;stroke-width:2.08px;"/>
        </g>
        <g transform="matrix(1,0,0,1,947.113,526.8)">
            <path d="M525,412.5C525,391.803 508.197,375 487.5,375L412.5,375C391.803,375 375,391.803 375,412.5L375,487.5C375,508.197 391.803,525 412.5,525L487.5,525C508.197,525 525,508.197 525,487.5L525,412.5Z" style="fill:rgb(235,235,235);stroke:black;stroke-width:2.08px;"/>
        </g>
        <g transform="matrix(1,0,0,1,947.113,701.813)">
            <path d="M525,412.5C525,391.803 508.197,375 487.5,375L412.5,375C391.803,375 375,391.803 375,412.5L375,487.5C375,508.197 391.803,525 412.5,525L487.5,525C508.197,525 525,508.197 525,487.5L525,412.5Z" style="fill:rgb(235,235,235);stroke:black;stroke-width:2.08px;"/>
        </g>
        <g transform="matrix(0.866025,0.5,-0.5,0.866025,1291.82,755.065)">
            <path d="M525,412.5C525,391.803 508.197,375 487.5,375L412.5,375C391.803,375 375,391.803 375,412.5L375,487.5C375,508.197 391.803,525 412.5,525L487.5,525C508.197,525 525,508.197 525,487.5L525,412.5Z" style="fill:rgb(235,235,235);stroke:black;stroke-width:2.08px;"/>
        </g>
        <g transform="matrix(0.866025,0.5,-0.5,0.866025,1204.02,907.139)">
            <path d="M525,412.5C525,391.803 508.197,375 487.5,375L412.5,375C391.803,375 375,391.803 375,412.5L375,487.5C375,508.197 391.803,525 412.5,525L487.5,525C508.197,525 525,508.197 525,487.5L525,412.5Z" style="fill:rgb(235,235,235);stroke:black;stroke-width:2.08px;"/>
        </g>
        <g transform="matrix(0.866025,0.5,-0.5,0.866025,1455.86,849.777)">
            <path d="M525,412.5C525,391.803 508.197,375 487.5,375L412.5,375C391.803,375 375,391.803 375,412.5L375,487.5C375,508.197 391.803,525 412.5,525L487.5,525C508.197,525 525,508.197 525,487.5L525,412.5Z" style="fill:rgb(235,235,235);stroke:black;stroke-width:2.08px;"/>
        </g>
        <g transform="matrix(0.866025,0.5,-0.5,0.866025,1368.06,1001.85)">
            <path d="M525,412.5C525,391.803 508.197,375 487.5,375L412.5,375C391.803,375 375,391.803 375,412.5L375,487.5C375,508.197 391.803,525 412.5,525L487.5,525C508.197,525 525,508.197 525,487.5L525,412.5Z" style="fill:rgb(235,235,235);stroke:black;stroke-width:2.08px;"/>
        </g>
        <g transform="matrix(0.866025,0.5,-0.5,0.866025,1620.2,943.98)">
            <path d="M525,412.5C525,391.803 508.197,375 487.5,375L412.5,375C391.803,375 375,391.803 375,412.5L375,487.5C375,508.197 391.803,525 412.5,525L487.5,525C508.197,525 525,508.197 525,487.5L525,412.5Z" style="fill:rgb(235,235,235);stroke:black;stroke-width:2.08px;"/>
        </g>
        <g transform="matrix(0.866025,0.5,-0.5,0.866025,1532.1,1096.56)">
            <path d="M525,412.5C525,391.803 508.197,375 487.5,375L412.5,375C391.803,375 375,391.803 375,412.5L375,487.5C375,508.197 391.803,525 412.5,525L487.5,525C508.197,525 525,508.197 525,487.5L525,412.5Z" style="fill:rgb(235,235,235);stroke:black;stroke-width:2.08px;"/>
        </g>
    </g>
    <g transform="matrix(-1,0,0,1,3554.3,262.5)">
        <path d="M525,412.5C525,391.803 508.197,375 487.5,375L412.5,375C391.803,375 375,391.803 375,412.5L375,487.5C375,508.197 391.803,525 412.5,525L487.5,525C508.197,525 525,508.197 525,487.5L525,412.5Z" style="fill:rgb(235,235,235);stroke:black;stroke-width:2.08px;"/>
        <g transform="matrix(1,0,0,1,0,175.6)">
            <path d="M525,412.5C525,391.803 508.197,375 487.5,375L412.5,375C391.803,375 375,391.803 375,412.5L375,487.5C375,508.197 391.803,525 412.5,525L487.5,525C508.197,525 525,508.197 525,487.5L525,412.5Z" style="fill:rgb(235,235,235);stroke:black;stroke-width:2.08px;"/>
        </g>
        <g transform="matrix(1,0,0,1,0,351.2)">
            <path d="M525,412.5C525,391.803 508.197,375 487.5,375L412.5,375C391.803,375 375,391.803 375,412.5L375,487.5C375,508.197 391.803,525 412.5,525L487.5,525C508.197,525 525,508.197 525,487.5L525,412.5Z" style="fill:rgb(235,235,235);stroke:black;stroke-width:2.08px;"/>
        </g>
        <g transform="matrix(1,0,0,1,0,526.8)">
            <path d="M525,412.5C525,391.803 508.197,375 487.5,375L412.5,375C391.803,375 375,391.803 375,412.5L375,487.5C375,508.197 391.803,525 412.5,525L487.5,525C508.197,525 525,508.197 525,487.5L525,412.5Z" style="fill:rgb(235,235,235);stroke:black;stroke-width:2.08px;"/>
        </g>
        <g transform="matrix(1,0,0,1,0,702.4)">
            <path d="M525,412.5C525,391.803 508.197,375 487.5,375L412.5,375C391.803,375 375,391.803 375,412.5L375,487.5C375,508.197 391.803,525 412.5,525L487.5,525C508.197,525 525,508.197 525,487.5L525,412.5Z" style="fill:rgb(235,235,235);stroke:black;stroke-width:2.08px;"/>
        </g>
        <g transform="matrix(1,0,0,1,0,878)">
            <path d="M525,412.5C525,391.803 508.197,375 487.5,375L412.5,375C391.803,375 375,391.803 375,412.5L375,487.5C375,508.197 391.803,525 412.5,525L487.5,525C508.197,525 525,508.197 525,487.5L525,412.5Z" style="fill:rgb(235,235,235);stroke:black;stroke-width:2.08px;"/>
        </g>
        <g transform="matrix(1,0,0,1,189.423,0)">
            <path d="M525,412.5C525,391.803 508.197,375 487.5,375L412.5,375C391.803,375 375,391.803 375,412.5L375,487.5C375,508.197 391.803,525 412.5,525L487.5,525C508.197,525 525,508.197 525,487.5L525,412.5Z" style="fill:rgb(235,235,235);stroke:black;stroke-width:2.08px;"/>
        </g>
        <g transform="matrix(1,0,0,1,189.423,175.6)">
            <path d="M525,412.5C525,391.803 508.197,375 487.5,375L412.5,375C391.803,375 375,391.803 375,412.5L375,487.5C375,508.197 391.803,525 412.5,525L487.5,525C508.197,525 525,508.197 525,487.5L525,412.5Z" style="fill:rgb(235,235,235);stroke:black;stroke-width:2.08px;"/>
        </g>
        <g transform="matrix(1,0,0,1,189.423,351.2)">
            <path d="M525,412.5C525,391.803 508.197,375 487.5,375L412.5,375C391.803,375 375,391.803 375,412.5L375,487.5C375,508.197 391.803,525 412.5,525L487.5,525C508.197,525 525,508.197 525,487.5L525,412.5Z" style="fill:rgb(235,235,235);stroke:black;stroke-width:2.08px;"/>
        </g>
        <g transform="matrix(1,0,0,1,189.423,526.8)">
            <path d="M525,412.5C525,391.803 508.197,375 487.5,375L412.5,375C391.803,375 375,391.803 375,412.5L375,487.5C375,508.197 391.803,525 412.5,525L487.5,525C508.197,525 525,508.197 525,487.5L525,412.5Z" style="fill:rgb(235,235,235);stroke:black;stroke-width:2.08px;"/>
        </g>
        <g transform="matrix(1,0,0,1,189.423,702.4)">
            <path d="M525,412.5C525,391.803 508.197,375 487.5,375L412.5,375C391.803,375 375,391.803 375,412.5L375,487.5C375,508.197 391.803,525 412.5,525L487.5,525C508.197,525 525,508.197 525,487.5L525,412.5Z" style="fill:rgb(235,235,235);stroke:black;stroke-width:2.08px;"/>
        </g>
        <g transform="matrix(1,0,0,1,189.423,878)">
            <path d="M525,412.5C525,391.803 508.197,375 487.5,375L412.5,375C391.803,375 375,391.803 375,412.5L375,487.5C375,508.197 391.803,525 412.5,525L487.5,525C508.197,525 525,508.197 525,487.5L525,412.5Z" style="fill:rgb(235,235,235);stroke:black;stroke-width:2.08px;"/>
        </g>
        <g transform="matrix(1,0,0,1,378.845,0)">
            <path d="M525,412.5C525,391.803 508.197,375 487.5,375L412.5,375C391.803,375 375,391.803 375,412.5L375,487.5C375,508.197 391.803,525 412.5,525L487.5,525C508.197,525 525,508.197 525,487.5L525,412.5Z" style="fill:rgb(235,235,235);stroke:black;stroke-width:2.08px;"/>
        </g>
        <g transform="matrix(1,0,0,1,378.845,175.6)">
            <path d="M525,412.5C525,391.803 508.197,375 487.5,375L412.5,375C391.803,375 375,391.803 375,412.5L375,487.5C375,508.197 391.803,525 412.5,525L487.5,525C508.197,525 525,508.197 525,487.5L525,412.5Z" style="fill:rgb(235,235,235);stroke:black;stroke-width:2.08px;"/>
        </g>
        <g transform="matrix(1,0,0,1,378.845,351.2)">
            <path d="M525,412.5C525,391.803 508.197,375 487.5,375L412.5,375C391.803,375 375,391.803 375,412.5L375,487.5C375,508.197 391.803,525 412.5,525L487.5,525C508.197,525 525,508.197 525,487.5L525,412.5Z" style="fill:rgb(235,235,235);stroke:black;stroke-width:2.08px;"/>
        </g>
        <g transform="matrix(1,0,0,1,378.845,526.8)">
            <path d="M525,412.5C525,391.803 508.197,375 487.5,375L412.5,375C391.803,375 375,391.803 375,412.5L375,487.5C375,508.197 391.803,525 412.5,525L487.5,525C508.197,525 525,508.197 525,487.5L525,412.5Z" style="fill:rgb(235,235,235);stroke:black;stroke-width:2.08px;"/>
        </g>
        <g transform="matrix(1,0,0,1,378.845,702.4)">
            <path d="M525,412.5C525,391.803 508.197,375 487.5,375L412.5,375C391.803,375 375,391.803 375,412.5L375,487.5C375,508.197 391.803,525 412.5,525L487.5,525C508.197,525 525,508.197 525,487.5L525,412.5Z" style="fill:rgb(235,235,235);stroke:black;stroke-width:2.08px;"/>
        </g>
        <g transform="matrix(1,0,0,1,378.845,878)">
            <path d="M525,412.5C525,391.803 508.197,375 487.5,375L412.5,375C391.803,375 375,391.803 375,412.5L375,487.5C375,508.197 391.803,525 412.5,525L487.5,525C508.197,525 525,508.197 525,487.5L525,412.5Z" style="fill:rgb(235,235,235);stroke:black;stroke-width:2.08px;"/>
        </g>
        <g transform="matrix(1,0,0,1,568.268,0)">
            <path d="M525,412.5C525,391.803 508.197,375 487.5,375L412.5,375C391.803,375 375,391.803 375,412.5L375,487.5C375,508.197 391.803,525 412.5,525L487.5,525C508.197,525 525,508.197 525,487.5L525,412.5Z" style="fill:rgb(235,235,235);stroke:black;stroke-width:2.08px;"/>
        </g>
        <g transform="matrix(1,0,0,1,568.268,175.6)">
            <path d="M525,412.5C525,391.803 508.197,375 487.5,375L412.5,375C391.803,375 375,391.803 375,412.5L375,487.5C375,508.197 391.803,525 412.5,525L487.5,525C508.197,525 525,508.197 525,487.5L525,412.5Z" style="fill:rgb(235,235,235);stroke:black;stroke-width:2.08px;"/>
        </g>
        <g transform="matrix(1,0,0,1,568.268,351.2)">
            <path d="M525,412.5C525,391.803 508.197,375 487.5,375L412.5,375C391.803,375 375,391.803 375,412.5L375,487.5C375,508.197 391.803,525 412.5,525L487.5,525C508.197,525 525,508.197 525,487.5L525,412.5Z" style="fill:rgb(235,235,235);stroke:black;stroke-width:2.08px;"/>
        </g>
        <g transform="matrix(1,0,0,1,568.268,526.8)">
            <path d="M525,412.5C525,391.803 508.197,375 487.5,375L412.5,375C391.803,375 375,391.803 375,412.5L375,487.5C375,508.197 391.803,525 412.5,525L487.5,525C508.197,525 525,508.197 525,487.5L525,412.5Z" style="fill:rgb(235,235,235);stroke:black;stroke-width:2.08px;"/>
        </g>
        <g transform="matrix(1,0,0,1,568.268,702.4)">
            <path d="M525,412.5C525,391.803 508.197,375 487.5,375L412.5,375C391.803,375 375,391.803 375,412.5L375,487.5C375,508.197 391.803,525 412.5,525L487.5,525C508.197,525 525,508.197 525,487.5L525,412.5Z" style="fill:rgb(235,235,235);stroke:black;stroke-width:2.08px;"/>
        </g>
        <g transform="matrix(1,0,0,1,568.268,878)">
            <path d="M525,412.5C525,391.803 508.197,375 487.5,375L412.5,375C391.803,375 375,391.803 375,412.5L375,487.5C375,508.197 391.803,525 412.5,525L487.5,525C508.197,525 525,508.197 525,487.5L525,412.5Z" style="fill:rgb(235,235,235);stroke:black;stroke-width:2.08px;"/>
        </g>
        <g transform="matrix(1,0,0,1,757.69,0)">
            <path d="M525,412.5C525,391.803 508.197,375 487.5,375L412.5,375C391.803,375 375,391.803 375,412.5L375,487.5C375,508.197 391.803,525 412.5,525L487.5,525C508.197,525 525,508.197 525,487.5L525,412.5Z" style="fill:rgb(235,235,235);stroke:black;stroke-width:2.08px;"/>
        </g>
        <g transform="matrix(1,0,0,1,757.69,175.6)">
            <path d="M525,412.5C525,391.803 508.197,375 487.5,375L412.5,375C391.803,375 375,391.803 375,412.5L375,487.5C375,508.197 391.803,525 412.5,525L487.5,525C508.197,525 525,508.197 525,487.5L525,412.5Z" style="fill:rgb(235,235,235);stroke:black;stroke-width:2.08px;"/>
        </g>
        <g transform="matrix(1,0,0,1,757.69,351.2)">
            <path d="M525,412.5C525,391.803 508.197,375 487.5,375L412.5,375C391.803,375 375,391.803 375,412.5L375,487.5C375,508.197 391.803,525 412.5,525L487.5,525C508.197,525 525,508.197 525,487.5L525,412.5Z" style="fill:rgb(235,235,235);stroke:black;stroke-width:2.08px;"/>
        </g>
        <g transform="matrix(1,0,0,1,757.69,526.8)">
            <path d="M525,412.5C525,391.803 508.197,375 487.5,375L412.5,375C391.803,375 375,391.803 375,412.5L375,487.5C375,508.197 391.803,525 412.5,525L487.5,525C508.197,525 525,508.197 525,487.5L525,412.5Z" style="fill:rgb(235,235,235);stroke:black;stroke-width:2.08px;"/>
        </g>
        <g transform="matrix(1,0,0,1,757.69,702.4)">
            <path d="M525,412.5C525,391.803 508.197,375 487.5,375L412.5,375C391.803,375 375,391.803 375,412.5L375,487.5C375,508.197 391.803,525 412.5,525L487.5,525C508.197,525 525,508.197 525,487.5L525,412.5Z" style="fill:rgb(235,235,235);stroke:black;stroke-width:2.08px;"/>
        </g>
        <g transform="matrix(1,0,0,1,757.69,878)">
            <path d="M525,412.5C525,391.803 508.197,375 487.5,375L412.5,375C391.803,375 375,391.803 375,412.5L375,487.5C375,508.197 391.803,525 412.5,525L487.5,525C508.197,525 525,508.197 525,487.5L525,412.5Z" style="fill:rgb(235,235,235);stroke:black;stroke-width:2.08px;"/>
        </g>
        <g transform="matrix(1,0,0,1,947.113,175.6)">
            <path d="M525,412.5C525,391.803 508.197,375 487.5,375L412.5,375C391.803,375 375,391.803 375,412.5L375,487.5C375,508.197 391.803,525 412.5,525L487.5,525C508.197,525 525,508.197 525,487.5L525,412.5Z" style="fill:rgb(235,235,235);stroke:black;stroke-width:2.08px;"/>
        </g>
        <g transform="matrix(1,0,0,1,947.113,351.2)">
            <path d="M525,412.5C525,391.803 508.197,375 487.5,375L412.5,375C391.803,375 375,391.803 375,412.5L375,487.5C375,508.197 391.803,525 412.5,525L487.5,525C508.197,525 525,508.197 525,487.5L525,412.5Z" style="fill:rgb(235,235,235);stroke:black;stroke-width:2.08px;"/>
        </g>
        <g transform="matrix(1,0,0,1,947.113,526.8)">
            <path d="M525,412.5C525,391.803 508.197,375 487.5,375L412.5,375C391.803,375 375,391.803 375,412.5L375,487.5C375,508.197 391.803,525 412.5,525L487.5,525C508.197,525 525,508.197 525,487.5L525,412.5Z" style="fill:rgb(235,235,235);stroke:black;stroke-width:2.08px;"/>
        </g>
        <g transform="matrix(1,0,0,1,947.113,701.813)">
            <path d="M525,412.5C525,391.803 508.197,375 487.5,375L412.5,375C391.803,375 375,391.803 375,412.5L375,487.5C375,508.197 391.803,525 412.5,525L487.5,525C508.197,525 525,508.197 525,487.5L525,412.5Z" style="fill:rgb(235,235,235);stroke:black;stroke-width:2.08px;"/>
        </g>
        <g transform="matrix(0.866025,0.5,-0.5,0.866025,1291.82,755.065)">
            <path d="M525,412.5C525,391.803 508.197,375 487.5,375L412.5,375C391.803,375 375,391.803 375,412.5L375,487.5C375,508.197 391.803,525 412.5,525L487.5,525C508.197,525 525,508.197 525,487.5L525,412.5Z" style="fill:rgb(235,235,235);stroke:black;stroke-width:2.08px;"/>
        </g>
        <g transform="matrix(0.866025,0.5,-0.5,0.866025,1204.02,907.139)">
            <path d="M525,412.5C525,391.803 508.197,375 487.5,375L412.5,375C391.803,375 375,391.803 375,412.5L375,487.5C375,508.197 391.803,525 412.5,525L487.5,525C508.197,525 525,508.197 525,487.5L525,412.5Z" style="fill:rgb(235,235,235);stroke:black;stroke-width:2.08px;"/>
        </g>
        <g transform="matrix(0.866025,0.5,-0.5,0.866025,1455.86,849.777)">
            <path d="M525,412.5C525,391.803 508.197,375 487.5,375L412.5,375C391.803,375 375,391.803 375,412.5L375,487.5C375,508.197 391.803,525 412.5,525L487.5,525C508.197,525 525,508.197 525,487.5L525,412.5Z" style="fill:rgb(235,235,235);stroke:black;stroke-width:2.08px;"/>
        </g>
        <g transform="matrix(0.866025,0.5,-0.5,0.866025,1368.06,1001.85)">
            <path d="M525,412.5C525,391.803 508.197,375 487.5,375L412.5,375C391.803,375 375,391.803 375,412.5L375,487.5C375,508.197 391.803,525 412.5,525L487.5,525C508.197,525 525,508.197 525,487.5L525,412.5Z" style="fill:rgb(235,235,235);stroke:black;stroke-width:2.08px;"/>
        </g>
        <g transform="matrix(0.866025,0.5,-0.5,0.866025,1620.2,943.98)">
            <path d="M525,412.5C525,391.803 508.197,375 487.5,375L412.5,375C391.803,375 375,391.803 375,412.5L375,487.5C375,508.197 391.803,525 412.5,525L487.5,525C508.197,525 525,508.197 525,487.5L525,412.5Z" style="fill:rgb(235,235,235);stroke:black;stroke-width:2.08px;"/>
        </g>
        <g transform="matrix(0.866025,0.5,-0.5,0.866025,1532.1,1096.56)">
            <path d="M525,412.5C525,391.803 508.197,375 487.5,375L412.5,375C391.803,375 375,391.803 375,412.5L375,487.5C375,508.197 391.803,525 412.5,525L487.5,525C508.197,525 525,508.197 525,487.5L525,412.5Z" style="fill:rgb(235,235,235);stroke:black;stroke-width:2.08px;"/>
        </g>
    </g>
    <g transform="matrix(1,0,0,1.11252,0,-8.43877)">
        <path d="M3179.3,192.976C3179.3,127.863 3120.49,75 3048.05,75L281.25,75C208.811,75 150,127.863 150,192.976L150,428.927C150,494.04 208.811,546.903 281.25,546.903L3048.05,546.903C3120.49,546.903 3179.3,494.04 3179.3,428.927L3179.3,192.976Z" style="fill:rgb(235,235,235);stroke:black;stroke-width:1.97px;"/>
    </g>
    <path d="M3179.3,2193.75C3179.3,2142.01 3137.29,2100 3085.55,2100L243.75,2100C192.008,2100 150,2142.01 150,2193.75L150,2381.25C150,2432.99 192.008,2475 243.75,2475L3085.55,2475C3137.29,2475 3179.3,2432.99 3179.3,2381.25L3179.3,2193.75Z" style="fill:rgb(235,235,235);stroke:black;stroke-width:2.08px;"/>
    <path d="M899.318,1837.5C899.318,1816.8 882.515,1800 861.818,1800L187.5,1800C166.803,1800 150,1816.8 150,1837.5L150,1912.5C150,1933.2 166.803,1950 187.5,1950L861.818,1950C882.515,1950 899.318,1933.2 899.318,1912.5L899.318,1837.5Z" style="fill:rgb(235,235,235);stroke:black;stroke-width:2.08px;"/>
</svg>
